<svg width="62" height="61" viewBox="0 0 62 61" fill="none" xmlns="http://www.w3.org/2000/svg">
<path d="M32.2891 50.1306C32.392 50.2492 32.495 50.3678 32.5979 50.4864C32.6628 50.5133 32.6628 50.5133 32.7008 50.6051C32.8307 50.6588 32.8687 50.7506 32.9985 50.8043C33.0634 50.8312 33.0634 50.8312 33.1283 50.858L33.1932 50.8849C33.323 50.9386 33.4797 50.9274 33.6095 50.9812C33.6095 50.9812 33.6095 50.9812 33.6744 51.008C33.8311 50.9969 33.9877 50.9857 34.0795 50.9476L34.1444 50.9745L42.6428 48.2583C43.2583 48.0569 43.6187 47.3698 43.2606 46.7655C42.9675 46.188 42.2155 45.8008 41.5083 46.0402L36.9513 47.499C39.2816 43.5221 40.0922 38.9922 40.1079 38.7707C43.0255 24.926 34.9742 10.9505 22.074 7.58755C21.463 7.41068 20.8207 7.67696 20.6058 8.19618C20.5789 8.26108 20.552 8.32598 20.5252 8.39088C20.4132 9.02873 20.8362 9.65992 21.5769 9.89052C33.0335 12.884 40.201 25.5054 37.4424 38.0475C37.4155 38.1124 36.5512 42.7721 34.3015 46.5543L33.4941 40.9746C33.3845 40.321 32.7511 39.8308 32.0596 39.8487C31.368 39.8665 30.8397 40.4081 30.9493 41.0616L32.2018 49.7904C32.213 49.947 32.251 50.0388 32.2891 50.1306Z" fill="black"/>
</svg>
