<svg width="19" height="28" viewBox="0 0 19 28" fill="none" xmlns="http://www.w3.org/2000/svg">
<path d="M0.244141 12.6634V23.3277C0.244141 25.6429 2.14003 27.5388 4.4552 27.5388H14.7641C17.0793 27.5388 18.9752 25.6429 18.9752 23.3277V12.6634H0.244141ZM10.8447 20.5112L11.5466 24.2848H7.68186L8.3837 20.5204C7.53602 20.0737 6.95267 19.1805 6.95267 18.1596C6.95267 16.683 8.14671 15.489 9.62332 15.489C11.0999 15.489 12.294 16.683 12.294 18.1596C12.2757 19.1805 11.6924 20.0737 10.8447 20.5112Z" fill="black"/>
<path d="M16.8943 10.2024H14.3148V5.253C14.3148 4.2139 13.4762 3.37534 12.4371 3.37534H6.76771C5.72861 3.37534 4.89005 4.2139 4.89005 5.253V10.2024H2.31055V5.253C2.31055 2.79199 4.31581 0.795837 6.76771 0.795837H12.4371C14.8982 0.795837 16.8943 2.8011 16.8943 5.253V10.2024V10.2024Z" fill="black"/>
</svg>
